<svg xmlns="http://www.w3.org/2000/svg" viewBox="0 0 64 64" width="64" height="64">
  <defs>
    <linearGradient id="bg" x1="0%" y1="0%" x2="100%" y2="100%">
      <stop offset="0%" style="stop-color:#4F8EF7"/>
      <stop offset="100%" style="stop-color:#1A3FBD"/>
    </linearGradient>
    <linearGradient id="shield" x1="0%" y1="0%" x2="100%" y2="100%">
      <stop offset="0%" style="stop-color:#E8F0FF;stop-opacity:1"/>
      <stop offset="100%" style="stop-color:#A8C4FF;stop-opacity:1"/>
    </linearGradient>
  </defs>
  <!-- Rounded rect background -->
  <rect width="64" height="64" rx="14" fill="url(#bg)"/>
  <!-- Shield shape -->
  <path d="M32 10 L50 17 L50 33 C50 43 42 51 32 54 C22 51 14 43 14 33 L14 17 Z" fill="url(#shield)" opacity="0.25"/>
  <path d="M32 13 L47 19.5 L47 33 C47 41.5 40.5 49 32 51.5 C23.5 49 17 41.5 17 33 L17 19.5 Z" fill="white" opacity="0.9"/>
  <!-- Padlock body -->
  <rect x="24" y="30" width="16" height="13" rx="2.5" fill="#1A3FBD"/>
  <!-- Padlock shackle -->
  <path d="M26 30 L26 26 C26 22.7 29 20 32 20 C35 20 38 22.7 38 26 L38 30" stroke="#1A3FBD" stroke-width="3" fill="none" stroke-linecap="round"/>
  <!-- Keyhole -->
  <circle cx="32" cy="36" r="2" fill="white"/>
  <rect x="31" y="37" width="2" height="3" rx="0.5" fill="white"/>
</svg>